# xmcd
#
# Track frame offsets: 
#        150
#        10901
#        23000
#        34051
#        44438
#        57056
#        66516
#        80194
#        91931
#        104275
#        114108
#        125659
#        138006
#        148918
#        158902
#        172776
#        184984
#        200940
#        222247
#        235265
#        246893
#        256129
#        270134
#        280858
#        292941
#
# Disc length: 4055 seconds
#
# Revision: 2
# Processed by: cddbd v1.5.2PL0 Copyright (c) Steve Scherf et al.
# Submitted via: ExactAudioCopyFreeDBPlugin 1.0
#
DISCID=650fd519
DTITLE=Various Artist - The Best of Burlesque [Demon Music]
DYEAR=2009
DGENRE=Burlesque
TTITLE0=Earl Bostic - Harlem Nocturne
TTITLE1=Frank Sinatra with George Siravo and His Orchestra - Lover
TTITLE2=Wynonie Harris with The Todd Rhodes Orchestra - Lovin' Machine
TTITLE3=Dale Hawkins - Susie Q
TTITLE4=Julia Lee and Her Boy Friends - Gotta Give Me What You Got
TTITLE5=Frankie Lee Simms - She Likes to Boogie Real Low
TTITLE6=The Cadets - Stranded in the Jungle
TTITLE7=Lil' Millet and His Creoles - Rich Woman
TTITLE8=Bo Diddley - Bo Diddley
TTITLE9=The Coaster - Three Cool Cats
TTITLE10=The Flamingoes - Jump Children
TTITLE11=Tiny Bradshaw and His Orchestra - The Train Kept A-Rollin'
TTITLE12=Link Wray and His Ray Men - Rumble
TTITLE13=Papa Lightfoot - Wine, Women, Whiskey
TTITLE14=Joe Liggins and His Honeydrippers - The Honeydripper
TTITLE15=Little Willie John - Fever
TTITLE16=Doctor Horse - Jack, That Cat Was Clean
TTITLE17=Louis Prima and His Orchestra - Just A Gigolo - I Ain't Got N
TTITLE17=obody
TTITLE18=Ella May Morse - The House of Blue Lights
TTITLE19=Marvin and Johnny - Yak Yak
TTITLE20=Roy Brown - Let the Four Winds Blow
TTITLE21=Wynonie Harris - I Want My Fanny Brown
TTITLE22=Billie Gayles with Ike Turner's Kings Of Rhythm - I'm Tore Up
TTITLE23="Stick" McGhee And His Buddies - One Monkey Don't Stop No Sho
TTITLE23=w
TTITLE24=Paula Watson - I Love to Ride
EXTD=
EXTT0=
EXTT1=
EXTT2=
EXTT3=
EXTT4=
EXTT5=
EXTT6=
EXTT7=
EXTT8=
EXTT9=
EXTT10=
EXTT11=
EXTT12=
EXTT13=
EXTT14=
EXTT15=
EXTT16=
EXTT17=
EXTT18=
EXTT19=
EXTT20=
EXTT21=
EXTT22=
EXTT23=
EXTT24=
PLAYORDER=
